<?xml version="1.0" standalone="no"?>
<!DOCTYPE svg PUBLIC "-//W3C//DTD SVG 20010904//EN"
 "http://www.w3.org/TR/2001/REC-SVG-20010904/DTD/svg10.dtd">
<svg version="1.0" xmlns="http://www.w3.org/2000/svg"
 width="275.000000pt" height="275.000000pt" viewBox="0 0 275.000000 275.000000"
 preserveAspectRatio="xMidYMid meet">
<metadata>
Created by potrace 1.11, written by Peter Selinger 2001-2013
</metadata>
<g transform="translate(0.000000,275.000000) scale(0.100000,-0.100000)"
fill="#000000" stroke="none">
<path d="M1077 2485 c-201 -40 -371 -194 -433 -392 -24 -77 -29 -217 -10 -296
19 -81 45 -134 102 -208 59 -77 135 -135 364 -279 360 -226 437 -286 482 -378
20 -40 23 -62 23 -152 0 -96 -2 -109 -27 -152 -29 -48 -78 -92 -138 -124 -56
-29 -220 -32 -307 -5 -174 52 -312 196 -410 426 l-42 100 -67 3 c-37 2 -70 -1
-75 -5 -4 -4 -3 -33 2 -63 5 -30 27 -185 49 -345 22 -159 43 -300 45 -313 5
-21 10 -23 72 -20 l67 3 15 47 c8 27 21 48 31 51 9 2 73 -13 141 -35 160 -50
252 -67 366 -68 216 0 402 75 531 216 109 118 152 231 152 394 0 174 -42 274
-169 401 -104 104 -152 139 -368 273 -361 224 -424 274 -469 369 -31 67 -33
160 -5 215 99 193 409 184 612 -18 74 -73 135 -184 166 -302 l18 -68 78 0 79
0 -6 38 c-3 20 -19 172 -36 337 -17 165 -33 315 -36 333 l-5 33 -66 -3 -65 -3
-17 -45 c-14 -39 -20 -45 -49 -48 -19 -2 -79 12 -140 32 -199 67 -312 79 -455
51z"/>
</g>
</svg>
